<?xml version="1.0" encoding="UTF-8"?>
<svg width="227px" height="228px" viewBox="0 0 227 228" version="1.1" xmlns="http://www.w3.org/2000/svg" xmlns:xlink="http://www.w3.org/1999/xlink">
    <title>Group 7 Copy</title>
    <g id="Welcome" stroke="none" stroke-width="1" fill="none" fill-rule="evenodd">
        <g id="Artboard" transform="translate(-286.000000, -428.000000)">
            <g id="Group-7-Copy" transform="translate(286.000000, 428.000000)">
                <path d="M178,198 L163,198 L163,208 L178,208 L178,198 Z M147,198 L132,198 L132,208 L147,208 L147,198 Z M116,198 L101,198 L101,208 L116,208 L116,198 Z M85,198 L70,198 L70,208 L85,208 L85,198 Z M54,198 L39,198 L39,208 L54,208 L54,198 Z M197,198 L194,198 L194,208 L207,208 L207,186 L197,186 L197,198 Z M30,176 L20,176 L20,191 L30,191 L30,176 Z M207,155 L197,155 L197,170 L207,170 L207,155 Z M30,145 L20,145 L20,160 L30,160 L30,145 Z M207,124 L197,123.999 L197,139 L207,139 L207,124 Z M30,114 L20,114 L20,129 L30,129 L30,114 Z M207,93 L197,93 L197,108 L207,108 L207,93 Z M30,83 L20,83 L20,98 L30,98 L30,83 Z M207,62 L197,62 L197,77 L207,77 L207,62 Z M30,52 L20,52 L20,67 L30,67 L30,52 Z M207,31 L197,31 L197,46 L207,46 L207,31 Z M40,21 L20,21 L20,36 L30,36 L30,31 L40,31 L40,21 Z M71,21 L56,21 L56,31 L71,31 L71,21 Z M102,21 L87,21 L87,31 L102,31 L102,21 Z M133,21 L118,21 L118,31 L133,31 L133,21 Z M164,21 L149,21 L149,31 L164,31 L164,21 Z M195,21 L180,21 L180,31 L195,31 L195,21 Z" id="Rectangle" fill="#F9FCFF" fill-rule="nonzero"></path>
                <rect id="Rectangle" fill="#53A3C1" x="30" y="31" width="167" height="167"></rect>
                <rect id="Rectangle" fill="#FFFFFF" x="178" y="179" width="49" height="49" rx="6"></rect>
                <path d="M137.844371,165 C137.844371,163.304985 137.746137,161.609971 137.549669,159.914956 C137.353201,158.219941 137.058499,156.8739 136.665563,155.876833 C133.030905,155.677419 130.280353,155.178886 128.413907,154.381232 C126.547461,153.583578 125.294978,152.112903 124.656457,149.969208 C124.017936,147.825513 123.698675,144.809384 123.698675,140.920821 L123.698675,140.920821 L123.698675,72.4222874 L128.85596,72.4222874 C133.898639,72.4222874 137.679119,73.76855 140.197403,76.4610753 L140.717715,77.058651 C143.222682,80.1495601 144.818985,84.8357771 145.506623,91.1173021 C147.864238,91.2170088 150.000828,91.0923754 151.916391,90.7434018 C153.831954,90.3944282 155.52649,89.9208211 157,89.3225806 C156.312362,84.6363636 155.772075,80.0498534 155.379139,75.5630499 C154.986203,71.0762463 154.789735,66.888563 154.789735,63 C151.449779,63.0997067 147.692329,63.1744868 143.517384,63.2243402 C139.342439,63.2741935 134.75,63.3240469 129.740066,63.3739003 C124.730132,63.4237537 119.179912,63.4486804 113.089404,63.4486804 L93.3341382,63.4445259 C89.3297385,63.4306777 85.6493745,63.3822092 82.2930464,63.2991202 C78.2654525,63.1994135 74.5325607,63.0997067 71.0943709,63 C71.0943709,66.7888563 70.8242274,71.101173 70.2839404,75.9369501 C69.7436534,80.7727273 68.98234,85.2346041 68,89.3225806 C69.4735099,90.1202346 71.2417219,90.6187683 73.3046358,90.8181818 C75.3675497,91.0175953 77.3813466,91.1173021 79.3460265,91.1173021 C80.2301325,87.1290323 81.3107064,83.7639296 82.5877483,81.0219941 C83.8647903,78.2800587 85.7066777,76.1612903 88.1134106,74.6656891 C90.5201435,73.170088 93.7864238,72.4222874 97.9122517,72.4222874 L97.9122517,72.4222874 L101.591933,72.4222874 L101.596026,140.920821 C101.596026,144.377322 101.304963,147.144492 100.722835,149.222331 L100.490894,149.969208 C99.7541391,152.112903 98.3788631,153.583578 96.3650662,154.381232 C94.3512693,155.178886 91.5270419,155.677419 87.8923841,155.876833 C87.4994481,156.973607 87.1801876,158.369501 86.9346026,160.064516 C86.6890177,161.759531 86.5662252,163.404692 86.5662252,165 C88.6291391,164.900293 91.134106,164.825513 94.0811258,164.77566 C97.0281457,164.725806 100.220751,164.675953 103.65894,164.6261 C107.09713,164.576246 110.387969,164.55132 113.531457,164.55132 C118.344923,164.55132 122.863687,164.576246 127.087748,164.6261 C131.31181,164.675953 134.897351,164.800587 137.844371,165 Z" id="T" fill="#FFFFFF" fill-rule="nonzero"></path>
                <rect id="Rectangle-Copy-4" fill="#FFFFFF" x="178" y="0" width="49" height="49" rx="6"></rect>
                <rect id="Rectangle-Copy" fill="#FFFFFF" x="0" y="179" width="49" height="49" rx="6"></rect>
                <rect id="Rectangle-Copy-5" fill="#FFFFFF" x="0" y="0" width="49" height="49" rx="6"></rect>
            </g>
        </g>
    </g>
</svg>